<svg xmlns="http://www.w3.org/2000/svg" viewBox="0 12.850000381469727 452.70001220703125 36.650001525878906" data-asc="0.976" width="452.70001220703125" height="36.650001525878906"><defs/><g><g fill="#9088cd"><g transform="translate(0, 0)"><path d="M3.90 13.05L35.80 43.45L36.40 49.50L4.50 19.15L3.90 13.05M4.15 45.25L4.15 48.80L0 48.80L0 48.30Q0 48.30 0.45 48.30Q0.90 48.30 0.95 48.30Q2.20 48.30 3.10 47.40Q4 46.50 4 45.25L4.15 45.25M11.15 45.25Q11.15 46.50 12.05 47.40Q12.95 48.30 14.20 48.30Q14.25 48.30 14.70 48.30Q15.15 48.30 15.15 48.30L15.15 48.80L11 48.80L11 45.25L11.15 45.25M3.90 13.05L11.10 20.70L11.15 48.80L4 48.80L4 19.30Q4 16.50 3.70 14.77Q3.40 13.05 3.40 13.05L3.90 13.05M36.25 13.80L36.25 43.10Q36.25 44.95 36.40 46.42Q36.55 47.90 36.70 48.70Q36.85 49.50 36.85 49.50L36.40 49.50L29.15 41.40L29.15 13.80L36.25 13.80M40.25 13.80L40.25 14.30Q40.25 14.30 39.80 14.30Q39.35 14.30 39.35 14.30Q38.10 14.30 37.20 15.17Q36.30 16.05 36.25 17.35L36.10 17.35L36.10 13.80L40.25 13.80M25.10 13.80L29.25 13.80L29.25 17.35L29.15 17.35Q29.10 16.05 28.23 15.17Q27.35 14.30 26.05 14.30Q26.05 14.30 25.60 14.30Q25.15 14.30 25.10 14.30L25.10 13.80ZM52.85 18.80L52.85 37.65Q52.85 42.25 54.97 44.85Q57.10 47.45 60.90 47.45Q64.85 47.45 67.03 45Q69.20 42.55 69.25 38.20L69.25 18.80L72.55 18.80L72.55 37.90Q72.55 43.25 69.28 46.35Q66 49.45 60 49.45Q52.80 49.45 49.22 46.38Q45.65 43.30 45.65 37.95L45.65 18.80L52.85 18.80M45.75 18.80L45.75 21.40L45.65 21.40Q45.60 20.45 44.95 19.85Q44.30 19.25 43.35 19.25Q43.35 19.25 43 19.25Q42.65 19.25 42.65 19.25L42.65 18.80L45.75 18.80M55.80 18.80L55.80 19.25Q55.80 19.25 55.45 19.25Q55.10 19.25 55.10 19.25Q54.15 19.25 53.50 19.85Q52.85 20.45 52.85 21.40L52.75 21.40L52.75 18.80L55.80 18.80M69.35 18.80L69.35 21.40L69.25 21.40Q69.20 20.45 68.55 19.85Q67.90 19.25 67 19.25Q67 19.25 66.65 19.25Q66.30 19.25 66.30 19.25L66.30 18.80L69.35 18.80M75.50 18.80L75.50 19.25Q75.50 19.25 75.17 19.25Q74.85 19.25 74.85 19.25Q73.90 19.25 73.22 19.85Q72.55 20.45 72.55 21.40L72.45 21.40L72.45 18.80L75.50 18.80ZM87.55 18.80L106.90 48.75L98.55 48.75L79.30 18.80L87.55 18.80M84.55 45.70Q83.90 46.65 84.52 47.47Q85.15 48.30 86.05 48.30Q86.05 48.30 86.33 48.30Q86.60 48.30 86.60 48.30L86.60 48.80L75.60 48.80L75.60 48.30L76.25 48.30Q77.60 48.30 78.72 47.57Q79.85 46.85 80.65 45.85L84.55 45.70M90.10 33.50L92.20 35.25L82.35 48.75L78.55 48.65L90.10 33.50M96.60 45.75L105 45.90Q105.70 46.85 106.88 47.57Q108.05 48.30 109.45 48.30L110.05 48.30L110.05 48.80L94.55 48.80L94.55 48.30Q94.55 48.30 94.83 48.30Q95.10 48.30 95.10 48.30Q96 48.30 96.60 47.47Q97.20 46.65 96.60 45.75M91.55 18.75L91.55 19.25Q91.55 19.25 91.28 19.25Q91 19.25 91 19.25Q90.15 19.25 89.55 20.10Q88.95 20.95 89.50 21.80L81.20 21.65Q80.50 20.70 79.33 19.97Q78.15 19.25 76.75 19.25L76.15 19.25L76.15 18.75L91.55 18.75M105.90 18.80L95.35 34.25L93.70 31.65L102.05 18.80L105.90 18.80M109 18.75L109 19.25L108.35 19.25Q107 19.25 105.83 19.95Q104.65 20.65 103.95 21.65L100.10 21.80Q100.65 20.95 100.08 20.10Q99.50 19.25 98.60 19.25Q98.60 19.25 98.33 19.25Q98.05 19.25 98.05 19.25L98.05 18.75L109 18.75ZM127.95 18.95L127.95 48.80L120.70 48.80L120.70 18.95L127.95 18.95M138.80 18.75L138.80 20.75L109.85 20.75L109.85 18.75L138.80 18.75M138.80 20.60L138.80 25.90L138.30 25.90L138.30 25.45Q138.35 23.30 137.13 22.05Q135.90 20.80 133.75 20.75L133.75 20.60L138.80 20.60M138.80 18.00L138.80 19.25L133.55 18.75Q134.50 18.75 135.60 18.62Q136.70 18.50 137.60 18.32Q138.50 18.15 138.80 18.00M120.80 45.65L120.80 48.80L117.45 48.80L117.45 48.30Q117.45 48.30 117.72 48.30Q118 48.30 118 48.30Q119.10 48.30 119.88 47.52Q120.65 46.75 120.70 45.65L120.80 45.65M127.80 45.65L127.95 45.65Q127.95 46.75 128.75 47.52Q129.55 48.30 130.70 48.30Q130.70 48.30 130.97 48.30Q131.25 48.30 131.25 48.30L131.25 48.80L127.80 48.80L127.80 45.65M114.95 20.60L114.95 20.75Q112.75 20.80 111.57 22.05Q110.40 23.30 110.40 25.45L110.40 25.90L109.85 25.90L109.85 20.60L114.95 20.60M109.85 18.00Q110.30 18.10 111.17 18.30Q112.05 18.50 113.13 18.62Q114.20 18.75 115.10 18.75L109.85 19.25L109.85 18.00ZM172.25 13.95L172.25 48.80L164.75 48.80L164.75 13.95L172.25 13.95M184.50 13.75L184.50 15.85L152.50 15.85L152.50 13.75L184.50 13.75M184.50 15.70L184.50 21.60L184 21.55L184 21.00Q184 18.65 182.63 17.27Q181.25 15.90 178.90 15.85L178.90 15.70L184.50 15.70M184.50 12.85L184.50 14.30L178.40 13.75Q179.50 13.75 180.73 13.60Q181.95 13.45 183 13.25Q184.05 13.05 184.50 12.85M164.90 45.15L164.90 48.80L160.90 48.80L160.90 48.30Q160.90 48.30 161.23 48.30Q161.55 48.30 161.55 48.30Q162.85 48.30 163.78 47.38Q164.70 46.45 164.75 45.15L164.90 45.15M172.10 45.15L172.25 45.15Q172.30 46.45 173.23 47.38Q174.15 48.30 175.45 48.30Q175.45 48.30 175.78 48.30Q176.10 48.30 176.10 48.30L176.10 48.80L172.10 48.80L172.10 45.15M158.05 15.70L158.05 15.85Q155.75 15.90 154.38 17.27Q153 18.65 153 21.00L153 21.55L152.50 21.60L152.50 15.70L158.05 15.70M152.50 12.85Q153 13.05 154.03 13.25Q155.05 13.45 156.30 13.60Q157.55 13.75 158.60 13.75L152.50 14.30L152.50 12.85ZM197.20 18.80L202.55 18.80Q204.65 18.80 206.60 19.22Q208.55 19.65 210.10 20.57Q211.65 21.50 212.58 23.07Q213.50 24.65 213.50 27.00Q213.50 28.75 212.78 30.47Q212.05 32.20 210.53 33.45Q209 34.70 206.55 35.10Q208 35.55 209.33 36.85Q210.65 38.15 211.35 39.30Q211.60 39.70 212.10 40.57Q212.60 41.45 213.38 42.57Q214.15 43.70 215 44.90Q216 46.25 216.75 46.97Q217.50 47.70 218.30 48Q219.10 48.30 220.15 48.30L220.15 48.80L215.95 48.80Q213.25 48.80 211.38 48.40Q209.50 48 208.15 46.92Q206.80 45.85 205.60 44Q205.15 43.35 204.65 42.42Q204.15 41.50 203.65 40.55Q203.15 39.60 202.78 38.70Q202.40 37.80 202.25 37.20Q201.60 35.60 200.78 34.88Q199.95 34.15 199.25 34.15L199.25 33.70Q199.25 33.70 199.60 33.70Q199.95 33.70 200.50 33.70Q201.55 33.70 202.58 33.32Q203.60 32.95 204.45 31.87Q205.30 30.80 205.70 28.70Q205.80 28.40 205.88 27.85Q205.95 27.30 205.90 26.60Q205.80 24.75 205.23 23.65Q204.65 22.55 203.80 21.95Q202.95 21.35 202.08 21.12Q201.20 20.90 200.55 20.90Q199.60 20.85 198.83 20.87Q198.05 20.90 197.65 20.85Q197.60 20.85 197.50 20.32Q197.40 19.80 197.30 19.30Q197.20 18.80 197.20 18.80M197.70 18.80L197.70 48.80L190.45 48.80L190.45 18.80L197.70 18.80M190.60 45.65L190.80 48.80L187.20 48.80L187.20 48.30Q187.25 48.30 187.47 48.30Q187.70 48.30 187.80 48.30Q188.90 48.30 189.68 47.52Q190.45 46.75 190.50 45.65L190.60 45.65M190.60 21.90L190.50 21.90Q190.45 20.75 189.68 20.02Q188.90 19.30 187.85 19.30Q187.70 19.30 187.47 19.30Q187.25 19.30 187.20 19.30L187.20 18.80L190.80 18.80L190.60 21.90M197.60 45.65L197.70 45.65Q197.70 46.90 198.58 47.60Q199.45 48.30 200.40 48.30Q200.40 48.30 200.63 48.30Q200.85 48.30 200.95 48.30L200.95 48.80L197.35 48.80L197.60 45.65ZM234.90 17.45L249.70 48.55L241.25 48.55L231.95 26.60L234.90 17.45M225.50 45.50Q224.95 46.85 225.65 47.57Q226.35 48.30 227.20 48.30L227.60 48.30L227.60 48.80L217.60 48.80L217.60 48.30Q217.60 48.30 217.80 48.30Q218.00 48.30 218.00 48.30Q219.00 48.30 220.10 47.67Q221.20 47.05 221.90 45.50L225.50 45.50M234.90 17.45L235.00 23.45L224.15 48.65L220.45 48.65L232.15 23.50Q232.25 23.20 232.60 22.42Q232.95 21.65 233.35 20.67Q233.75 19.70 234.10 18.82Q234.45 17.95 234.50 17.45L234.90 17.45M239.25 39L239.25 40.95L226.50 40.95L226.50 39L239.25 39M240.00 45.50L248.25 45.50Q249.00 47.05 250.10 47.67Q251.20 48.30 252.20 48.30Q252.20 48.30 252.40 48.30Q252.60 48.30 252.60 48.30L252.60 48.80L237.90 48.80L237.90 48.30L238.30 48.30Q239.15 48.30 239.85 47.57Q240.55 46.85 240.00 45.50ZM262.40 49.45L247.70 19.05L256.20 19.05L265.30 40.25L262.40 49.45M262.40 49.45L262.20 43.60L273.05 18.95L276.70 18.95L265.15 43.35Q265.05 43.60 264.70 44.38Q264.35 45.15 263.95 46.13Q263.55 47.10 263.23 48Q262.90 48.90 262.85 49.45L262.40 49.45M271.65 22.10Q272.20 20.75 271.53 20.00Q270.85 19.25 269.95 19.25L269.60 19.25L269.60 18.80L279.55 18.80L279.55 19.30Q279.55 19.30 279.35 19.30Q279.15 19.30 279.15 19.30Q278.15 19.30 277.05 19.92Q275.95 20.55 275.20 22.10L271.65 22.10M257.50 22.10L249.20 22.10Q248.45 20.55 247.38 19.92Q246.30 19.30 245.30 19.30Q245.30 19.30 245.13 19.30Q244.95 19.30 244.95 19.30L244.95 18.80L259.60 18.80L259.60 19.25L259.20 19.25Q258.40 19.25 257.70 20.00Q257.00 20.75 257.50 22.10ZM290.70 18.80L290.70 48.80L283.50 48.80L283.50 18.80L290.70 18.80M302.40 46.80L303.55 48.80L290.60 48.80L290.60 46.80L302.40 46.80M300.70 32.95L300.70 34.95L290.60 34.95L290.60 32.95L300.70 32.95M302.95 18.80L302.95 20.80L290.60 20.80L290.60 18.80L302.95 18.80M305.60 39.60L303.70 48.80L295.05 48.80L296.60 46.80Q298.75 46.80 300.43 45.92Q302.10 45.05 303.30 43.42Q304.50 41.80 305.15 39.60L305.60 39.60M300.70 34.85L300.70 39.25L300.20 39.25L300.20 38.85Q300.20 37.20 299.18 36.07Q298.15 34.95 296.40 34.95L296.40 34.85L300.70 34.85M300.70 28.65L300.70 33.05L296.40 33.05L296.40 32.95Q298.15 32.90 299.18 31.77Q300.20 30.65 300.20 29.00L300.20 28.65L300.70 28.65M302.95 20.70L302.95 26.00L302.45 26.00L302.45 25.55Q302.45 23.35 301.28 22.10Q300.10 20.85 297.90 20.80L297.90 20.70L302.95 20.70M302.95 18.05L302.95 19.25L297.70 18.80Q299.15 18.80 300.75 18.52Q302.35 18.25 302.95 18.05M283.65 45.65L283.85 48.80L280.15 48.80L280.15 48.30Q280.15 48.30 280.45 48.30Q280.75 48.30 280.80 48.30Q281.90 48.30 282.70 47.52Q283.50 46.75 283.50 45.65L283.65 45.65M283.65 21.95L283.50 21.95Q283.50 20.80 282.70 20.05Q281.90 19.30 280.80 19.30Q280.75 19.30 280.45 19.30Q280.15 19.30 280.15 19.30L280.15 18.80L283.85 18.80L283.65 21.95ZM318.70 18.80L318.70 48.80L311.50 48.80L311.50 18.80L318.70 18.80M330.35 46.80L331.55 48.80L318.60 48.80L318.60 46.80L330.35 46.80M333.65 39.60L331.70 48.80L323.05 48.80L324.60 46.80Q326.75 46.80 328.43 45.92Q330.10 45.05 331.30 43.42Q332.50 41.80 333.15 39.60L333.65 39.60M311.65 45.65L311.85 48.80L308.15 48.80L308.15 48.30Q308.15 48.30 308.45 48.30Q308.75 48.30 308.80 48.30Q309.90 48.30 310.70 47.52Q311.50 46.75 311.50 45.65L311.65 45.65M318.60 21.95L318.60 18.80L322.05 18.80L322.05 19.30Q322.00 19.30 321.73 19.30Q321.45 19.30 321.45 19.30Q320.35 19.30 319.55 20.05Q318.75 20.80 318.70 21.95L318.60 21.95M311.65 21.95L311.50 21.95Q311.50 20.80 310.68 20.05Q309.85 19.30 308.75 19.30Q308.70 19.30 308.43 19.30Q308.15 19.30 308.15 19.30L308.15 18.80L311.65 18.80L311.65 21.95ZM359.85 13.80L359.85 48.80L352.35 48.80L352.35 13.80L359.85 13.80M373.05 46.65L374.25 48.80L359.70 48.80L359.70 46.65L373.05 46.65M376.70 38.60L374.40 48.80L364.60 48.80L366.40 46.65Q368.90 46.65 370.80 45.67Q372.70 44.70 374.05 42.88Q375.40 41.05 376.20 38.60L376.70 38.60M352.50 45.15L352.50 48.80L348.50 48.80L348.50 48.30Q348.50 48.30 348.83 48.30Q349.15 48.30 349.15 48.30Q350.45 48.30 351.38 47.38Q352.30 46.45 352.35 45.15L352.50 45.15M352.50 17.45L352.35 17.45Q352.30 16.15 351.38 15.22Q350.45 14.30 349.15 14.30Q349.15 14.30 348.83 14.30Q348.50 14.30 348.50 14.30L348.50 13.80L352.50 13.80L352.50 17.45M359.70 17.45L359.70 13.80L363.70 13.80L363.70 14.30Q363.65 14.30 363.35 14.30Q363.05 14.30 363.05 14.30Q361.75 14.30 360.83 15.22Q359.90 16.15 359.85 17.45L359.70 17.45ZM396.65 18.15Q400.65 18.15 403.90 19.22Q407.15 20.30 409.50 22.35Q411.85 24.40 413.13 27.30Q414.40 30.20 414.40 33.85Q414.40 37.45 413.13 40.32Q411.85 43.20 409.50 45.25Q407.15 47.30 403.90 48.38Q400.65 49.45 396.65 49.45Q392.70 49.45 389.45 48.38Q386.20 47.30 383.85 45.25Q381.50 43.20 380.25 40.32Q379.00 37.45 379.00 33.85Q379.00 30.20 380.25 27.30Q381.50 24.40 383.85 22.35Q386.20 20.30 389.45 19.22Q392.70 18.15 396.65 18.15M396.65 47.50Q399.70 47.50 401.98 45.82Q404.25 44.15 405.48 41.10Q406.70 38.05 406.70 33.85Q406.70 29.60 405.48 26.52Q404.25 23.45 401.98 21.77Q399.70 20.10 396.65 20.10Q393.65 20.10 391.40 21.77Q389.15 23.45 387.90 26.52Q386.65 29.60 386.65 33.85Q386.65 38.05 387.90 41.10Q389.15 44.15 391.40 45.82Q393.65 47.50 396.65 47.50ZM435.20 18.15Q437.50 18.15 439.83 18.42Q442.15 18.70 444.18 19.22Q446.20 19.75 447.60 20.45L447.60 28.40L447.20 28.40Q446.40 25.20 444.83 23.40Q443.25 21.60 441.20 20.85Q439.15 20.10 436.75 20.10Q433.25 20.10 430.85 21.75Q428.45 23.40 427.23 26.52Q426.00 29.65 426.00 34.05Q426.00 38.20 427.10 41.20Q428.20 44.20 430.35 45.85Q432.50 47.50 435.55 47.50Q437.15 47.50 438.60 46.97Q440.05 46.45 441.15 45.42Q442.25 44.40 442.70 42.90L442.75 36.90Q442.75 35.90 442.18 35.40Q441.60 34.90 440.55 34.90L439.85 34.90L439.85 34.45L452.70 34.45L452.70 34.90L452.05 34.90Q449.85 34.90 449.90 36.90L449.90 43.55Q448.85 44.90 446.65 46.27Q444.45 47.65 441.45 48.55Q438.45 49.45 434.90 49.45Q429.90 49.40 426.20 47.52Q422.50 45.65 420.45 42.15Q418.40 38.65 418.40 33.75Q418.40 28.85 420.45 25.37Q422.50 21.90 426.25 20.02Q430.00 18.15 435.20 18.15Z"/></g></g></g></svg>